<svg xmlns="http://www.w3.org/2000/svg" viewBox="0 0 135.87 139.54"><defs><style>.cls-1{fill:#856345;}.cls-2{fill:#ad925b;}.cls-3{fill:#6d883f;}.cls-4{fill:#7f9849;}.cls-5{fill:#fbc778;}.cls-6{fill:#866242;}.cls-7{fill:#856141;}.cls-8{fill:#5c5c5c;}</style></defs><title>Asset 5</title><g id="Layer_2" data-name="Layer 2"><g id="Réteg_1" data-name="Réteg 1"><g id="Layer_1-2" data-name="Layer_1"><g id="_2437949120064" data-name=" 2437949120064"><path class="cls-1" d="M2.91,1.57C-1.26-.91.18.25.5.41,2.27,1.4,4,2.56,6,3.72,9.32,12,15.58,13.45,21,13.78c-.16,5,9.3,13.2,15.24,13a4.18,4.18,0,0,0,1.44-.17c.16,6.44,6.09,17.5,10.58,19a4.84,4.84,0,0,0-2.56,5.61,4.59,4.59,0,0,0,5.93,3.13,4.73,4.73,0,0,0,3-5.94,4.6,4.6,0,0,0-5.45-3.13l-.16-.16c-4.49-1-10.43-13.2-10.59-18A205,205,0,0,1,75.56,69.89c1,1.32,3.85.17,3.05-1C58.24,38.7,43.81,24.18,2.91,1.57ZM6,3.72,6.44,4A15.17,15.17,0,0,0,8.52,7.68,23.94,23.94,0,0,1,6,3.72ZM6.44,4c4.49,2.8,9.3,5.77,14.28,9.4h-.16C13.5,13.28,9.32,9.33,6.44,4Zm15.4,10.07c5,3.63,10.27,7.59,15.56,12a1,1,0,0,1-.64.16C31.46,26,22.32,20.22,21.83,14.11ZM22,16.25A13.6,13.6,0,0,0,25.52,21,13.6,13.6,0,0,1,22,16.25ZM49.74,48.44a1.49,1.49,0,0,0-1,2,1.42,1.42,0,0,0,1.93,1,1.48,1.48,0,0,0,1-2A1.44,1.44,0,0,0,49.74,48.44Zm-.64-2.31a4.05,4.05,0,0,0-2.57,4.95,3.81,3.81,0,0,0,4.81,2.48,3.88,3.88,0,0,0-2.25-7.43Z"/><path class="cls-2" d="M114.06,83.92l-.17,5.94c-10.42-2.31-31.75-2-43.3-2.14.49-2.47-3-11.88,4.65-10.56C88.56,79.8,100.26,81.94,114.06,83.92Z"/><path class="cls-3" d="M114.06,84.58c-3.37.82-18.45-1.15-21.34-3.63,0-.82,0-.33.65-.82-7.54-8.75-10.58-5.61-15.88-14.69-1-1,.32-1.65.17-3.3,1.28,0,8.66,3.63,12.5,5.45-.64-1-1.28-10.07-1.76-12.71,2.08-1,4-5.28,4.65-6.11,1-1.15,1.28-1,1.76-2C106.36,49.93,114.38,72.7,114.06,84.58Z"/><path class="cls-4" d="M92.72,80.95C86.47,79.3,82.78,74.18,78,69.89a19.11,19.11,0,0,0-4-3.13c.16-1.65-.64-4.62,2.24-4.78l1.45.16c1,.83,9.94,8.42,11.39,9.58,1-1.32,1.6-14.36,4.49-18,2.57-3,7.37-1.15,7.37,3.3C101.07,66.59,93.69,81.12,92.72,80.95Z"/><path class="cls-5" d="M93.37,44.31c0,.5-.32,1.15.16,1.48l1.28,1c-.48,1-.8.83-1.76,2-.65.83-2.57,5.12-4.65,6.11l-1.29-2.64c-1.6-4-5.61-2.48-7.38-3-.8,0-1.12-1.65-1.28-2.15L77,46.79c-.65-.17.32-2.64-.16-4.29-1.28-.33,1.92-1.65,1-2.48.17,0,9.3.33,11.23.33.48,1.33.16,2.81,1,3.47A3,3,0,0,0,93.37,44.31ZM76.2,62c-2.89.16-2.08,3.13-2.24,4.78-4.33,1-6.57-1.48-5.94-6.6l1.28-.33c1.45.33,3.53,1.32,3.37-.82C74.44,59.49,75.56,60,76.2,62Z"/><path class="cls-6" d="M93.37,44.31a3,3,0,0,1-3.37-.5c-.81-.66-.49-2.14-1-3.47,1.28-.66,3.85-2.47,5-3Z"/><path class="cls-6" d="M86.63,46a20.35,20.35,0,0,1,.48,6.27c-.32,2.31-.8,3.13-2.73,3.46-1.6.33-4.49-4.62-4.65-6.43.32-.17,1.28-.17,1.6-.5.32-.16.32-.16.49-.49.48-1.66-2.41-.33-3.05-.17l-.32-1c2.09-1,3.53-.82,5.3-1.32,1-1.65.64-2.31.32-4.12l2.89-2A18.52,18.52,0,0,0,86.47,44Z"/><path class="cls-2" d="M91.61,27.81l1.44,4c2.25,1,8,.49,6.1,2.47-7.22,7.59-20.85,9.24-28.07,8.09-2.89-.49,3.53-4,5-5.77.16-1.82-.32-4.62.32-6.11C77.49,27.15,87.76,26.16,91.61,27.81Z"/><path class="cls-7" d="M40.44,113.46c6.25,3.3,77.63,1.82,84.85.66,3.69-.66,10.59-23.59,10.59-25.58-43.47-.33-73.14-3.46-115.8-6.76C23.12,87.22,36.59,111.32,40.44,113.46Z"/><polygon class="cls-8" points="5.96 3.72 6.12 3.72 6.76 3.72 6.76 139.54 5.31 139.54 5.31 3.72 5.96 3.72"/></g></g></g></g></svg>