<svg xmlns="http://www.w3.org/2000/svg" viewBox="0 0 54.38 24.48"><defs><style>.cls-1{fill:#fff;}</style></defs><title>Asset 6</title><g id="Layer_2" data-name="Layer 2"><g id="Réteg_1" data-name="Réteg 1"><g id="Layer_1-2" data-name="Layer_1"><path class="cls-1" d="M27.42,3.54c-3.66-1.09-6-1.93-10.54-1-4,.9-5.2,2.38-7.07,4.5C-1.75,5.53-3.42,16.2,6.54,17c.58,7.84,12.08,9,17.09,4.69,3.85,1.54,5.85,3.53,13.43,2.57A12.72,12.72,0,0,0,43.22,22c1.73-1.16,4.43-.51,6.94-1.67,5.2-2.25,6.49-8.74-1.35-10.92-2.57-.71-1.42,0-2.7-1.8S43,5,39.95,4.83C39.75-1.34,29.15-1.41,27.42,3.54Z"/></g></g></g></svg>