<svg xmlns="http://www.w3.org/2000/svg" viewBox="0 0 52.45 31"><defs><style>.cls-1{fill:#2da9e1;}.cls-2{fill:#fdc71c;}.cls-3{fill:#fff;}</style></defs><title>Asset 9</title><g id="Layer_2" data-name="Layer 2"><g id="Réteg_1" data-name="Réteg 1"><g id="Layer_1-2" data-name="Layer_1"><g id="_2473841237552" data-name=" 2473841237552"><path class="cls-1" d="M39.3,6.57S35.21.13,32.11,0,19.21,8.44,17.6,11.66,39.3,6.57,39.3,6.57Z"/><path class="cls-2" d="M2,9.68c4.09-5,8.31,5.08,9.55,5.08a2.92,2.92,0,0,0,1.86-.87l.25-.25h0c3.23-3.1,9.92-8.31,17.49-8.31C37.94,5.33,44,7.2,47.49,10h.12a.12.12,0,0,0,.12.12h0l.5.5h0l.12.12h.12v.12l.12.12a.12.12,0,0,1,.12.12h0a.12.12,0,0,1,.12.12h0a.12.12,0,0,1,.12.12h0a.12.12,0,0,0,.12.13.12.12,0,0,0,.12.12h0a.12.12,0,0,0,.12.13v.12l.12.13h0c.12.12.12.12.12.25h0a.12.12,0,0,1,.12.12.12.12,0,0,0,.12.13v.12a.12.12,0,0,1,.12.13v.12h.12v.25a.12.12,0,0,1,.12.13,1.41,1.41,0,0,1,1-.38,1.17,1.17,0,0,1,1.24,1.24,1.36,1.36,0,0,1-.74,1.24.75.75,0,0,1,.12.5,1,1,0,0,1-1,1.12h-.12v.13a.12.12,0,0,1-.12.12v.38a.12.12,0,0,0-.12.12V18l-.12.13h0a.45.45,0,0,1-.12.25v.12a.12.12,0,0,1-.12.13v.12l-.12.12h0c0,.12,0,.12-.12.12v.12c0,.12,0,.12-.12.12v.12a.43.43,0,0,0-.12.25h-.12v.12a.12.12,0,0,0-.12.12.12.12,0,0,1-.12.12v.12H49.1c0,.12,0,.12-.12.12v.12a22.71,22.71,0,0,0-.25.25l-.12.12-.12.12a.12.12,0,0,0-.12.12h-.12c0,.12,0,.12-.12.12v.12a.12.12,0,0,0-.12.12h-.12a.12.12,0,0,1-.12.13c0,.12,0,.12-.12.12a1.7,1.7,0,0,1-.5.38v.12h-.25v.13c-.12,0-.12.12-.25.12h0c-.12.13-.12.13-.25.13v.12a2.66,2.66,0,0,0-.62.38h-.12l-.12.12h-.12l-.12.13h-.12c0,.12-.12.12-.25.12h0a7,7,0,0,0-1,.62h-.12a.38.38,0,0,0-.25.12h0c-.12,0-.25,0-.25.12h0c-.5.12-1,.37-1.61.5h0c0,.12-.12.12-.25.12h0a19.8,19.8,0,0,1-4.09,1h0a32.85,32.85,0,0,1-6.2.62c-7.57,0-14.26-5.33-17.49-8.43h0C10.16,17.24,5.33,24.31,3,23.56s-1-2.1-1.86-2.85,0-2,.12-4S-2,14.64,2,9.68Z"/><path class="cls-1" d="M38.31,23.81c.87.12-.37,6.45-1.49,7.07s-5-1.36-4.71-2.24S36.7,23.44,38.31,23.81Z"/><path class="cls-3" d="M41.16,12.53a2.48,2.48,0,0,0,2.61,2.11,2.4,2.4,0,0,0,2.61-2.11,2.41,2.41,0,0,0-2.61-2.23A2.49,2.49,0,0,0,41.16,12.53Z"/><path class="cls-1" d="M43.15,12.28a1,1,0,0,0,1,1,.91.91,0,0,0,1-1,1,1,0,0,0-1-1A1.07,1.07,0,0,0,43.15,12.28Z"/></g></g></g></g></svg>