<svg xmlns="http://www.w3.org/2000/svg" viewBox="0 0 66.72 35.59"><defs><style>.cls-1{fill:#c9d32c;}.cls-2{fill:#37b6ad;}.cls-3{fill:#fff;}.cls-4{fill:#209fda;}</style></defs><title>Asset 8</title><g id="Layer_2" data-name="Layer 2"><g id="Réteg_1" data-name="Réteg 1"><g id="Layer_1-2" data-name="Layer_1"><g id="_2473832785616" data-name=" 2473832785616"><path class="cls-1" d="M45.43,28.23S45,33.27,42.6,35,35,34.06,35,34.06s-2.21-.79,3.15-6.31Z"/><path class="cls-1" d="M45.43,8.83S41.18,0,38.65,0c-2.36,0-8.51,4.42-7.72,6.78s7.41,3.47,7.41,3.47Z"/><path class="cls-2" d="M3.5,6.46C10.12,3,16.11,16.56,17.84,16.56A5.75,5.75,0,0,0,20,16.08c0-.16.16-.16.16-.31h0C24.46,12.46,32.66,7.09,42,7.09c12.93,0,23.49,10.09,24.75,11.35h0v.16h0C65.46,19.87,54.9,30.12,42,30.12c-9.78,0-18.13-5.83-22.23-9.3C14.22,22.55,10.59,33.9,8.07,33.43c-2.68-.32-3.47-2.53-1.58-5.52,2.05-3.16,1.42-2.37.16-3.16-1.42-.79.63-2.68,1.11-5.2.47-2.68-1.9-5.05-4.26-6.31C1.29,12.14-3.12,9.78,3.5,6.46Z"/><path class="cls-3" d="M52.69,18.13a3.89,3.89,0,0,0,3.62,4.1c1.89,0,3.47-1.9,3.47-4.1,0-2.36-1.58-4.26-3.47-4.26C54.27,13.87,52.69,15.77,52.69,18.13Z"/><path class="cls-4" d="M55.37,17.82a1.42,1.42,0,0,0,1.42,1.42A1.29,1.29,0,0,0,58,17.82a1.29,1.29,0,0,0-1.26-1.42A1.41,1.41,0,0,0,55.37,17.82Z"/></g></g></g></g></svg>