<svg xmlns="http://www.w3.org/2000/svg" viewBox="0 0 48 48"><defs><style>.cls-1{fill:#fdc71c;}</style></defs><title>Asset 14</title><g id="Layer_2" data-name="Layer 2"><g id="Réteg_1" data-name="Réteg 1"><g id="Layer_1-2" data-name="Layer_1"><path class="cls-1" d="M19.05.09C16.64,4.22,16.3,5.93,9.9,4.17c.28,4.93-2,7.26-6.75,7.4C5.81,15.82,3.94,19.73,0,21c.6.68,2.64,1.64,3.12,4.37a6.19,6.19,0,0,1-1.9,5.67c.65.42,1.59.45,2.58,1a6,6,0,0,1,2.27,7.74c2.35-.11,3.83-.43,5.64.91a6.07,6.07,0,0,1,2.47,5c1.81-.94,3-2.13,5.84-1.36A5.86,5.86,0,0,1,23.93,48c2.69-3.74,5.3-5.47,9.87-2.16.37-2.49.82-3.74,2.41-5,2-1.56,3.12-1.08,5.76-1-1.67-4,.14-7.06,4.11-8.48l.23-.09.42-.2A1.59,1.59,0,0,0,47,31c-3.09-2.78-3-7.23,1-9.72-1.22-1-6.61-2.47-3.12-9.67-4.73-.34-7.06-2.32-6.69-7.48-2.27.74-3.74,1.36-6.1.08S30.17,2.1,29,0C25.32,3.52,23,3.54,19.05.09Z"/></g></g></g></svg>