<svg xmlns="http://www.w3.org/2000/svg" viewBox="0 0 50.89 38.39"><defs><style>.cls-1{fill:#f79226;}.cls-2{fill:#7dc246;}.cls-3{fill:#fff;}.cls-4{fill:#209fda;}</style></defs><title>Asset 12</title><g id="Layer_2" data-name="Layer 2"><g id="Réteg_1" data-name="Réteg 1"><g id="Layer_1-2" data-name="Layer_1"><g id="_2473841223920" data-name=" 2473841223920"><path class="cls-1" d="M33.55,6.27S30.18-.35,27.54,0s-.6,2-1.93,3.25-2.53-1-3.73,0-.12,2-1,2.65-1.69-.48-2.53.36-.12,2-.84,2.53-1.44-.36-2,.6-.24,4.33-.24,4.33Z"/><path class="cls-2" d="M.58,19.39c1.68-.36,5.05,5.78,7.34,5.78s2.41-10.47,12.4-17,20.34-.12,23.35,6.5c1.93,4.21,4,5.65,5.3,6.13a.91.91,0,0,1,.84-.6,1.08,1.08,0,0,1,1.08,1.08,1.09,1.09,0,0,1-.36.84,1.09,1.09,0,0,1,.36.85,1.08,1.08,0,0,1-1.08,1.08c-.12,0-.24-.12-.36-.12C48,27.45,44,32.87,35,35.15,22.48,38.4,9.48,27.45,8.16,27.58s-4.93,4.69-6,4.21-.6-3.13-.48-5.3S-1.23,19.63.58,19.39Z"/><path class="cls-3" d="M35.6,19.39a3.13,3.13,0,0,0,2.89,3.37,3.22,3.22,0,0,0,2.89-3.37c0-1.93-1.32-3.49-2.89-3.49S35.6,17.46,35.6,19.39Z"/><path class="cls-4" d="M37.77,19.15a1.08,1.08,0,1,0,1.08-1.08A1.08,1.08,0,0,0,37.77,19.15Z"/><path class="cls-1" d="M29.7,30.47c1.08.24-.36,7.22-1.56,7.82S22.72,36.84,23,35.76,28.14,30,29.7,30.47Z"/></g></g></g></g></svg>